<?xml version="1.0" encoding="UTF-8"?>
<svg version="1.1" xmlns="http://www.w3.org/2000/svg" width="512" height="512">
<path d="M0 0 C1.31702839 -0.00384115 2.63405677 -0.00768229 3.99099511 -0.01163983 C5.4510983 -0.01085963 6.91120144 -0.00998085 8.37130451 -0.00901413 C9.92354335 -0.01159835 11.47578152 -0.01461167 13.02801877 -0.01801753 C17.29581256 -0.02608406 21.56358952 -0.02787691 25.83139002 -0.028615 C30.43344964 -0.03046615 35.03550054 -0.03801381 39.63755512 -0.04475021 C49.7016579 -0.05833158 59.7657567 -0.06435794 69.82986712 -0.06876087 C76.11409988 -0.07152361 82.39833111 -0.07576103 88.68256283 -0.08026505 C106.08223054 -0.09245743 123.48189702 -0.10275682 140.88156891 -0.10614014 C141.99516713 -0.1063597 143.10876534 -0.10657927 144.25610896 -0.10680549 C145.93049941 -0.10713291 145.93049941 -0.10713291 147.63871592 -0.10746694 C149.90067844 -0.1079104 152.16264095 -0.10835697 154.42460346 -0.10880661 C156.1076202 -0.10913875 156.1076202 -0.10913875 157.82463727 -0.10947761 C176.00468792 -0.11342551 194.18469849 -0.13087944 212.36473366 -0.15416613 C231.03048667 -0.17788197 249.69621957 -0.19034209 268.36198789 -0.19150805 C278.84188349 -0.19242468 289.32172687 -0.19817392 299.80160809 -0.21632767 C308.72559418 -0.23173176 317.6495119 -0.23684728 326.57350876 -0.22858956 C331.12560787 -0.22468418 335.6775693 -0.22560726 340.22965145 -0.23964691 C344.40029211 -0.25239233 348.57069173 -0.2511827 352.74133209 -0.2390562 C354.24673648 -0.23710032 355.75215798 -0.24017262 357.25753834 -0.24890056 C370.686478 -0.32180371 380.27112085 1.33614916 390.21244526 10.72517776 C394.87260909 15.66495142 398.52494526 22.22680651 398.52494526 29.13142776 C399.43671528 29.1104805 400.3484853 29.08953323 401.28788471 29.0679512 C404.72288665 28.99912484 408.15713914 28.94931681 411.59257221 28.9117012 C413.06957904 28.89178289 414.54650909 28.86463769 416.02323627 28.82966995 C428.77614145 28.535605 439.89182879 29.98526004 449.52494526 39.13142776 C457.17647878 47.36880956 460.13983144 56.55513736 460.03287983 67.64375687 C460.04223977 69.1589459 460.04223977 69.1589459 460.05178881 70.70474482 C460.06764738 74.06401214 460.05514219 77.42254665 460.04252338 80.78181839 C460.04794765 83.2005391 460.05507201 85.61925651 460.06376362 88.03796768 C460.08007607 93.91016642 460.07773488 99.78217727 460.06611305 105.65437067 C460.05705606 110.42952104 460.05586449 115.20461415 460.06020832 119.97977066 C460.06082125 120.66104276 460.06143418 121.34231486 460.06206569 122.04423156 C460.06334467 123.42849793 460.06464153 124.81276427 460.06595606 126.1970306 C460.07734488 139.15794297 460.06427489 152.11874192 460.04275459 165.07963568 C460.02488512 176.18533538 460.0279897 187.2908678 460.04642963 198.39656448 C460.06786645 211.31310638 460.0762464 224.22954904 460.06398058 237.14610624 C460.06270647 238.5250991 460.06144898 239.90409198 460.06020832 241.28308487 C460.05928267 242.30065223 460.05928267 242.30065223 460.05833831 243.3387765 C460.05489383 248.10467099 460.06069424 252.87050219 460.07012653 257.63638687 C460.08255789 264.05839026 460.07362679 270.48015275 460.05054951 276.90212822 C460.04527182 279.25548976 460.04676002 281.60887792 460.05560017 283.96222878 C460.06657597 287.1815404 460.05276645 290.39985037 460.03287983 293.61909866 C460.04626416 295.00677059 460.04626416 295.00677059 460.05991888 296.42247629 C459.94331659 306.19403073 456.37753515 315.08175012 449.52494526 322.13142776 C439.20048997 330.43997664 429.42007763 332.29483547 416.43900776 332.22908401 C415.38208729 332.22766907 414.32516682 332.22625412 413.23621845 332.2247963 C409.8740981 332.21921716 406.51204534 332.20666846 403.14994526 332.19392776 C400.86478997 332.18891007 398.57963364 332.18434763 396.29447651 332.18025589 C390.70460986 332.16925456 385.11478239 332.1525372 379.52494526 332.13142776 C379.55112934 332.89286087 379.57731342 333.65429398 379.60429096 334.43880081 C379.70841541 337.89863211 379.77332255 341.35813362 379.83744526 344.81892776 C379.87933979 346.01711136 379.92123432 347.21529495 379.96439838 348.44978714 C379.98051167 349.60672073 379.99662495 350.76365433 380.01322651 351.95564651 C380.03941059 353.01872025 380.06559467 354.08179398 380.09257221 355.17708206 C379.30253683 359.28900383 377.89977351 360.69703865 374.52494526 363.13142776 C371.68620516 363.49914021 369.50674375 363.6177358 366.71244526 363.44392776 C366.01957417 363.42136917 365.32670307 363.39881058 364.61283588 363.37556839 C362.91592953 363.31705438 361.22014665 363.22738256 359.52494526 363.13142776 C359.53541889 364.23019241 359.54589252 365.32895706 359.55668354 366.46101761 C359.5931803 370.57979891 359.61595258 374.69856623 359.63480854 378.81746292 C359.64479904 380.59222705 359.65839607 382.366975 359.67582417 384.14168167 C359.81845281 399.05056971 359.91567567 412.78206273 349.35697651 424.46345901 C340.15832455 432.8383511 330.66900923 434.43239309 318.70969868 434.3988533 C317.52316519 434.40338441 316.3366317 434.40791553 315.11414266 434.41258395 C311.83329456 434.42303192 308.5525848 434.42455759 305.27172542 434.4221952 C301.72830346 434.42178615 298.18491391 434.43283457 294.64150715 434.44231033 C287.70381231 434.45890252 280.76615146 434.46441908 273.82843843 434.46553509 C268.18700882 434.46648645 262.54559039 434.47060113 256.90416431 434.47693634 C240.8980172 434.49454421 224.89189688 434.50377597 208.88574001 434.50227539 C208.02337208 434.50219548 207.16100415 434.50211557 206.27250385 434.50203323 C204.97736639 434.50191059 204.97736639 434.50191059 203.65606454 434.50178547 C189.66709798 434.50097279 175.67823914 434.52010709 161.68930373 434.54830997 C147.31413358 434.57706205 132.93901593 434.59084897 118.56381631 434.58912241 C110.49784211 434.5884593 102.43198084 434.59391721 94.3660326 434.61547852 C87.49779122 434.63372099 80.62971395 434.63801261 73.76145878 434.62445967 C70.26027179 434.61794527 66.75939936 434.61775685 63.25824261 434.63516617 C59.45459112 434.65062791 55.65176054 434.64130274 51.84812641 434.62590408 C50.75267655 434.63619121 49.65722669 434.64647834 48.52858138 434.65707719 C37.8604587 434.56192978 28.35643975 431.585087 20.52494526 424.13142776 C13.01551403 415.90518719 10.39237288 406.89083791 10.41141987 395.86262894 C10.41127384 395.14988815 10.41112782 394.43714737 10.41097736 393.70280838 C10.41167094 391.35997287 10.41943726 389.01721804 10.42728901 386.67439651 C10.42915516 385.0448651 10.43057813 383.41533311 10.43157673 381.78580093 C10.43538638 377.50654412 10.44520338 373.2273215 10.45628071 368.94807816 C10.46652823 364.57755877 10.4710815 360.20703384 10.47611713 355.83650589 C10.48682708 347.26813086 10.50388481 338.69978357 10.52494526 330.13142776 C9.41635151 330.17783401 8.30775776 330.22424026 7.16557026 330.27205276 C5.70205558 330.30957878 4.2385117 330.34597806 2.77494526 330.38142776 C2.04533588 330.41494339 1.31572651 330.44845901 0.56400776 330.48299026 C-3.00571593 330.54789433 -5.0446649 330.44750042 -7.96229839 328.30482864 C-10.04874215 325.30720203 -9.93165792 323.24460236 -9.86567974 319.61580276 C-9.85278912 318.36541214 -9.83989849 317.11502151 -9.82661724 315.82674026 C-9.79310162 314.52478714 -9.75958599 313.22283401 -9.72505474 311.88142776 C-9.69798443 309.90529495 -9.69798443 309.90529495 -9.67036724 307.88924026 C-9.62321745 304.63590469 -9.55741518 301.38403152 -9.47505474 298.13142776 C-10.25445415 297.98971146 -11.03385357 297.84799515 -11.83687115 297.70198441 C-19.63960506 296.01449698 -26.01944377 289.45396725 -30.47505474 283.13142776 C-34.03488341 276.32825966 -35.05627969 270.21776038 -34.98298931 262.61909866 C-34.98922927 261.60897264 -34.99546924 260.59884662 -35.00189829 259.55811071 C-35.01775686 256.19884339 -35.00525167 252.84030888 -34.99263287 249.48103714 C-34.99805713 247.06231643 -35.0051815 244.64359902 -35.0138731 242.22488785 C-35.03018556 236.35268911 -35.02784436 230.48067826 -35.01622254 224.60848486 C-35.00716554 219.83333449 -35.00597397 215.05824138 -35.0103178 210.28308487 C-35.01093073 209.60181277 -35.01154367 208.92054067 -35.01217517 208.21862397 C-35.01345416 206.8343576 -35.01475101 205.45009126 -35.01606554 204.06582493 C-35.02745436 191.10491256 -35.01438438 178.14411361 -34.99286407 165.18321985 C-34.9749946 154.07752015 -34.97809919 142.97198773 -34.99653912 131.86629105 C-35.01797593 118.94974915 -35.02635588 106.03330649 -35.01409006 93.11674929 C-35.01281595 91.73775643 -35.01155847 90.35876355 -35.0103178 88.97977066 C-35.0097007 88.30139242 -35.0090836 87.62301418 -35.0084478 86.92407903 C-35.00500331 82.15818454 -35.01080372 77.39235334 -35.02023602 72.62646866 C-35.03266737 66.20446527 -35.02373627 59.78270278 -35.00065899 53.36072731 C-34.9953813 51.00736577 -34.9968695 48.65397761 -35.00570965 46.30062675 C-35.01668546 43.08131513 -35.00287593 39.86300516 -34.98298931 36.64375687 C-34.9919122 35.71864225 -35.00083508 34.79352763 -35.01002836 33.84037924 C-34.89344082 24.07006018 -31.5229676 16.25085259 -24.82661724 9.17830276 C-17.3507846 2.6710996 -9.77584461 0.01070866 0 0 Z M-14.53364849 20.94783401 C-14.98868755 21.52404495 -15.44372662 22.10025589 -15.91255474 22.69392776 C-16.38564068 23.27271683 -16.85872662 23.85150589 -17.34614849 24.44783401 C-19.28402185 27.33788044 -19.60155618 29.87758748 -19.61486244 33.25483513 C-19.62055368 34.09823971 -19.62624493 34.9416443 -19.63210863 35.8106066 C-19.63328851 36.73733848 -19.63446838 37.66407037 -19.63568401 38.61888504 C-19.64077183 39.60331789 -19.64585965 40.58775075 -19.65110165 41.6020149 C-19.66685581 44.91601697 -19.67535904 48.2299972 -19.68379498 51.54402542 C-19.69333105 53.91407282 -19.7032221 56.28411881 -19.7134428 58.65416336 C-19.74214391 65.77795893 -19.76191363 72.90176466 -19.77883515 80.0255962 C-19.78363121 82.03823845 -19.78861441 84.05088017 -19.79364038 86.06352186 C-19.82461392 98.56572315 -19.8512952 111.0679291 -19.86805916 123.570158 C-19.87200857 126.4657441 -19.87601157 129.36133012 -19.88008404 132.25691605 C-19.8810924 132.97658752 -19.88210076 133.696259 -19.88313968 134.4377387 C-19.90013924 146.09072055 -19.94124067 157.74348977 -19.99210703 169.39636786 C-20.04391886 181.36446698 -20.07300613 193.33245685 -20.08025604 205.30066717 C-20.08491396 212.01864446 -20.09961899 218.73627361 -20.14000034 225.45413971 C-20.17685535 231.7759918 -20.1852795 238.09725004 -20.17199421 244.41918945 C-20.17204818 246.73751831 -20.18235157 249.05587341 -20.20374584 251.37410355 C-20.23143345 254.54414065 -20.22191457 257.71201292 -20.20331097 260.88206863 C-20.2201059 261.79541619 -20.23690082 262.70876374 -20.25420469 263.6497885 C-20.15443968 270.47167127 -18.18103727 275.14200929 -13.47505474 280.13142776 C-7.77442359 284.68132577 -1.59021911 284.69460021 5.4335146 284.61244583 C6.51024071 284.61586353 7.58696683 284.61928123 8.69632101 284.6228025 C12.29246419 284.62937394 15.88785559 284.60741639 19.48392963 284.58552933 C22.06635743 284.5844007 24.64878652 284.58503501 27.23121357 284.58729935 C32.78492689 284.58939241 38.33845161 284.57688806 43.8921175 284.55434799 C51.9216617 284.52178064 59.95111511 284.51141616 67.9807182 284.50639603 C81.00950958 284.49765078 94.03820055 284.47105617 107.06693745 284.43318558 C119.71992714 284.39644551 132.37288952 284.36814353 145.02592182 284.35115433 C145.80641288 284.35010343 146.58690393 284.34905254 147.39104623 284.3479698 C151.30670765 284.34274949 155.22236926 284.3376947 159.13803101 284.33272219 C191.60040885 284.29128415 224.0626636 284.22085678 256.52494526 284.13142776 C256.5271451 282.3995221 256.5271451 282.3995221 256.52938938 280.63262844 C256.56512851 253.19500326 256.62142319 225.75748248 256.70286621 198.3199533 C256.71288309 194.93932218 256.72272732 191.55869057 256.73246479 188.17805862 C256.73537685 187.16856834 256.73537685 187.16856834 256.73834774 186.13868431 C256.76932816 175.25648988 256.78633731 164.37431651 256.79813948 153.49208631 C256.8105716 142.31728674 256.83841491 131.1425836 256.87955832 119.96784908 C256.90216989 113.69477414 256.9178561 107.42185626 256.91682911 101.14873695 C256.91608234 95.23979181 256.93404065 89.3311938 256.96611309 83.42233849 C256.97460567 81.25808547 256.97636641 79.09379349 256.97074795 76.9295311 C256.93952931 63.05137684 257.15276875 51.29623354 266.47025776 40.13924026 C274.72141119 32.07632607 284.09433552 29.83984308 295.22391987 29.81258011 C296.1710384 29.80253448 297.11815693 29.79248886 298.09397602 29.78213882 C301.20507453 29.75140201 304.31608735 29.73429808 307.42728901 29.71736526 C309.59205578 29.69864598 311.75681531 29.67907201 313.92156696 29.65867996 C319.60470525 29.60743317 325.28786717 29.56776751 330.97111225 29.53053665 C336.77622508 29.4904503 342.58124021 29.43937908 348.38627338 29.38924026 C359.76576197 29.29256919 371.14530582 29.20813617 382.52494526 29.13142776 C381.82471561 24.9209728 381.08587108 23.21340519 377.77494526 20.44392776 C376.76174213 19.57187698 376.76174213 19.57187698 375.72807026 18.68220901 C371.2833604 15.55357459 367.49360298 14.88089377 362.10677338 14.87415886 C360.80244518 14.86770997 359.49811697 14.86126107 358.15426368 14.85461676 C356.70850313 14.85755899 355.26274297 14.86069442 353.81698322 14.86400223 C352.27981668 14.86026585 350.74265204 14.85566438 349.20549041 14.85027158 C344.97942327 14.83802458 340.7534352 14.83830405 336.52735436 14.84066033 C331.97031533 14.84106807 327.41330179 14.83003347 322.8562746 14.8205452 C313.92739312 14.80392491 304.99853804 14.79843519 296.06964239 14.79732044 C288.81248399 14.79637045 281.55533431 14.79226264 274.29817867 14.78591919 C253.7273422 14.76830399 233.1565266 14.75908076 212.58568253 14.76058014 C211.47646199 14.76066005 210.36724144 14.76073996 209.22440815 14.7608223 C208.11383483 14.76090406 207.00326151 14.76098582 205.85903446 14.76107006 C187.85867798 14.76188304 169.85840517 14.74274299 151.8580729 14.71454556 C133.37990723 14.68582779 114.90178238 14.67200466 96.42359382 14.67373312 C86.04770616 14.6743974 75.6719062 14.66888832 65.29603863 14.64737701 C56.46200619 14.62917978 47.62810121 14.62480589 38.79405817 14.63839586 C34.286725 14.64493287 29.77963647 14.64501632 25.27232647 14.62768936 C21.14489744 14.61198591 17.01790757 14.61479417 12.89048944 14.63225763 C11.39857985 14.63533355 9.90663771 14.63167277 8.41476651 14.62053747 C-0.660862 14.55729187 -7.4751402 14.71973846 -14.53364849 20.94783401 Z M276.14994526 51.56892776 C271.40562237 57.28066845 271.23491476 62.70811054 271.26424885 69.84161758 C271.2604233 70.82579243 271.25659775 71.80996728 271.25265628 72.82396561 C271.24232943 76.1249935 271.24631787 79.42584735 271.25028706 82.72688675 C271.24594043 85.09224483 271.24075745 87.45760151 271.23479939 89.82295609 C271.22139328 96.25055966 271.22083249 102.67810449 271.22336268 109.10571933 C271.22464552 113.11983194 271.22202558 117.13393568 271.21837521 121.14804649 C271.21778002 121.81449877 271.21718483 122.48095104 271.2165716 123.16759883 C271.21535985 124.52151378 271.21414571 125.87542872 271.21292923 127.22934366 C271.20205406 139.92492457 271.20421612 152.62047892 271.21031407 165.31606133 C271.21548365 176.92883833 271.20422669 188.54153145 271.18521585 200.15429186 C271.16584144 212.08063795 271.15758072 224.00694435 271.1613391 235.93330628 C271.1632517 242.62812081 271.16049356 249.32285338 271.14662457 256.01765633 C271.13407272 262.31232807 271.13596538 268.60683162 271.14903545 274.9015007 C271.15140649 277.213005 271.14864776 279.52452104 271.14041233 281.83601189 C271.12998809 284.98895589 271.13801112 288.14133101 271.15072346 291.2942543 C271.14334917 292.21108519 271.13597489 293.12791609 271.12837714 294.07252973 C271.19143904 301.49623716 273.35211581 306.6712189 278.52494526 312.13142776 C283.99235077 315.93817273 288.57909163 317.25223951 295.15318012 317.27186966 C296.29985661 317.2775798 297.44653309 317.28328995 298.62795734 317.28917313 C300.50910992 317.29084991 300.50910992 317.29084991 302.42826557 317.29256058 C303.76561335 317.2971912 305.10295982 317.30221619 306.44030476 317.30760574 C310.07065406 317.32070923 313.70098489 317.32717083 317.33135414 317.3316164 C319.60153227 317.33455078 321.87170539 317.3386563 324.14188099 317.34312057 C331.25070714 317.35679085 338.3595218 317.36645949 345.46836019 317.37032247 C353.66322616 317.37480053 361.85792513 317.39233863 370.05274034 317.42132306 C376.39429826 317.44297083 382.73580931 317.45302842 389.07740378 317.45436358 C392.86150937 317.45540951 396.64545787 317.4612717 400.42952442 317.4791832 C403.99185263 317.49571733 407.55390656 317.49779372 411.11625957 317.48904419 C413.03746638 317.4879123 414.95866431 317.50158883 416.87981892 317.51579666 C425.09812468 317.47627097 430.83697269 316.613717 437.77494526 311.94392776 C443.89900389 305.68068598 445.11678339 299.58476884 445.03960896 291.03596878 C445.05002725 289.55185297 445.05002725 289.55185297 445.06065601 288.03775501 C445.07888918 284.73671581 445.06867167 281.43639826 445.05839252 278.13533401 C445.06545277 275.76292255 445.07419823 273.3905156 445.08450031 271.018116 C445.10699044 264.58429957 445.10405551 258.15072918 445.09517884 251.71688843 C445.09033485 247.69653758 445.09363624 243.67622088 445.09914684 239.65587234 C445.1000485 238.98762863 445.10095015 238.31938491 445.10187913 237.63089138 C445.1037304 236.27319549 445.10559297 234.91549961 445.10746669 233.55780375 C445.12402912 220.83875033 445.11533896 208.11980798 445.09848111 195.40076125 C445.08378263 183.77329606 445.09841725 172.14608925 445.12725127 160.51865733 C445.15666692 148.5673261 445.16761145 136.61611403 445.15806907 124.66474819 C445.15704656 123.31215988 445.15605195 121.95957154 445.15508556 120.60698318 C445.15460917 119.9415541 445.15413278 119.27612501 445.15364196 118.59053141 C445.15148083 113.91035185 445.16154912 109.23031848 445.17585659 104.55015945 C445.19420567 98.24630136 445.18826364 91.94292373 445.16365719 85.63909149 C445.15864725 83.32681519 445.1621437 81.01450231 445.17480564 78.70225525 C445.19073496 75.54324677 445.1757849 72.38582072 445.15313435 69.22688675 C445.16497007 68.31403695 445.1768058 67.40118715 445.18900019 66.46067524 C445.08701576 59.44956242 442.9335189 54.65177681 438.04693037 49.60494518 C432.86270927 45.01159378 428.53319035 43.86863493 421.71244526 44.00642776 C420.55099995 44.02447464 419.38955463 44.04252151 418.19291401 44.06111526 C417.31248432 44.08431839 416.43205463 44.10752151 415.52494526 44.13142776 C415.49916401 45.33799026 415.47338276 46.54455276 415.44682026 47.78767776 C415.3904964 49.40229515 415.33315006 51.01687709 415.27494526 52.63142776 C415.26076557 53.42291214 415.24658588 54.21439651 415.23197651 55.02986526 C414.99688375 60.76612859 413.80588764 65.3521578 410.52494526 70.13142776 C404.5437207 75.09457154 399.06599808 75.28131373 391.55692768 75.27669144 C390.37541882 75.28172935 390.37541882 75.28172935 389.17004108 75.28686905 C386.57348255 75.29634542 383.97698875 75.29832057 381.38041401 75.29939651 C379.56826469 75.30261166 377.75611564 75.30597592 375.94396687 75.30948257 C372.14697894 75.31546574 368.35001374 75.31732333 364.55302143 75.3167305 C359.70107135 75.31662898 354.84926796 75.33027394 349.9973526 75.34750271 C346.25429338 75.35865281 342.51126927 75.36064877 338.76819515 75.36012077 C336.98013332 75.36129663 335.19207047 75.36569615 333.40402508 75.37345314 C330.89629613 75.38331289 328.38888105 75.38035143 325.88114643 75.37434769 C325.1510033 75.37996719 324.42086018 75.3855867 323.6685915 75.3913765 C317.63210012 75.35487827 312.02415325 74.5754146 306.71244526 71.50642776 C299.89254684 64.10196663 300.83709818 53.60365441 300.52494526 44.13142776 C290.35513661 43.57332851 283.23187845 43.79068939 276.14994526 51.56892776 Z M315.52494526 44.13142776 C315.52494526 49.08142776 315.52494526 54.03142776 315.52494526 59.13142776 C318.01747362 61.62395612 319.49043507 61.3743324 322.89193439 61.40248489 C323.63901157 61.39843643 324.38608875 61.39438797 325.15580463 61.39021683 C326.33648266 61.39547379 326.33648266 61.39547379 327.54101276 61.40083694 C330.15032922 61.40966019 332.75937591 61.40380308 335.36869526 61.39705276 C337.17708609 61.39839925 338.98547657 61.40033964 340.79386616 61.4028511 C344.5869106 61.40580317 348.37986095 61.40150209 352.17289448 61.39216995 C357.04235288 61.38077536 361.91159084 61.38733439 366.78104115 61.39931488 C370.51615284 61.40653127 374.25121201 61.40424658 377.98632526 61.3990593 C379.78213241 61.39772218 381.57794428 61.39937266 383.37374592 61.4040184 C385.880655 61.40908003 388.38720374 61.4013787 390.89408588 61.39021683 C392.01470165 61.39628952 392.01470165 61.39628952 393.15795612 61.40248489 C397.29593618 61.49914426 397.29593618 61.49914426 400.52494526 59.13142776 C400.52494526 54.18142776 400.52494526 49.23142776 400.52494526 44.13142776 C372.47494526 44.13142776 344.42494526 44.13142776 315.52494526 44.13142776 Z M5.52494526 299.13142776 C5.52494526 304.74142776 5.52494526 310.35142776 5.52494526 316.13142776 C14.10494526 316.13142776 22.68494526 316.13142776 31.52494526 316.13142776 C31.52494526 310.52142776 31.52494526 304.91142776 31.52494526 299.13142776 C22.94494526 299.13142776 14.36494526 299.13142776 5.52494526 299.13142776 Z M46.52494526 299.13142776 C46.19494526 307.38142776 45.86494526 315.63142776 45.52494526 324.13142776 C42.52494526 329.13142776 42.52494526 329.13142776 40.62382221 329.79085159 C39.92732563 329.80656204 39.23082905 329.82227249 38.51322651 329.83845901 C37.75590229 329.86746292 36.99857807 329.89646683 36.21830463 329.92634964 C35.43262104 329.93215042 34.64693745 329.9379512 33.83744526 329.94392776 C33.0401601 329.96906448 32.24287495 329.9942012 31.42142963 330.02009964 C29.45646506 330.07893091 27.49065135 330.1080518 25.52494526 330.13142776 C25.45526167 339.38085805 25.40204113 348.63019717 25.36950874 357.87983322 C25.35389038 362.17538132 25.3327226 366.47074906 25.2986269 370.76619339 C25.26589613 374.91591526 25.24806347 379.06546427 25.24031353 383.21530533 C25.23479454 384.79405816 25.22401749 386.37280214 25.20775509 387.95148087 C24.79143646 400.9710597 24.79143646 400.9710597 30.39213276 412.37361526 C31.05471088 412.91244339 31.71728901 413.45127151 32.39994526 414.00642776 C33.05736713 414.56072464 33.71478901 415.11502151 34.39213276 415.68611526 C38.34266467 418.36321564 41.85020991 419.3809659 46.60002327 419.38869667 C47.60477945 419.39514556 48.60953563 419.40159446 49.64473897 419.40823877 C50.74141997 419.40514156 51.83810096 419.40204436 52.96801472 419.3988533 C54.7239254 419.40564997 54.7239254 419.40564997 56.51530904 419.41258395 C59.76086164 419.42305413 63.00627491 419.42455379 66.25183904 419.4221952 C69.75365719 419.42178697 73.25544231 419.43282678 76.75724506 419.44231033 C83.61666954 419.45892007 90.47605964 419.46441987 97.33550254 419.46553509 C102.91169309 419.4664856 108.4878723 419.47059602 114.06405926 419.47693634 C129.87586962 419.49454884 145.68765283 419.50377522 161.49947307 419.50227539 C162.77798146 419.50215552 162.77798146 419.50215552 164.08231831 419.50203323 C164.93569875 419.50195147 165.7890792 419.50186971 166.66831966 419.50178547 C180.49777743 419.50097261 194.32712627 419.52011017 208.15655253 419.54830997 C222.35875307 419.57704121 236.5609005 419.59085012 250.76313084 419.58912241 C258.7357011 419.58845859 266.70815718 419.5939477 274.68070126 419.61547852 C281.4689283 419.63369352 288.2569894 419.63803511 295.04523031 419.62445967 C298.50755291 419.61793148 301.96955719 419.61780692 305.43184948 419.63516617 C309.18849301 419.65057369 312.9442997 419.6413387 316.70092487 419.62590408 C317.7909137 419.63619121 318.88090253 419.64647834 320.00392133 419.65707719 C327.47401087 419.58922392 332.61593523 418.30089535 338.54838276 413.49080276 C338.99439838 412.95970901 339.44041401 412.42861526 339.89994526 411.88142776 C340.36142963 411.36064651 340.82291401 410.83986526 341.29838276 410.30330276 C344.63871699 404.38857081 344.80911923 397.86806763 344.72025776 391.25642776 C344.71742786 390.44649368 344.71459797 389.6365596 344.71168232 388.80208206 C344.70059241 386.24503943 344.67550978 383.68836242 344.64994526 381.13142776 C344.63990096 379.38533912 344.63077766 377.63924491 344.62260151 375.89314651 C344.60068992 371.63910192 344.56623908 367.38532657 344.52494526 363.13142776 C343.40474995 363.08244339 342.28455463 363.03345901 341.13041401 362.98299026 C339.65773323 362.90794921 338.18507819 362.83240195 336.71244526 362.75642776 C335.97445698 362.72549026 335.2364687 362.69455276 334.47611713 362.66267776 C330.70601411 362.45796629 328.72843785 362.26708949 325.52494526 360.13142776 C324.48780003 357.01999209 324.32462665 354.63674681 324.20853901 351.36970901 C324.16664448 350.2514473 324.12474995 349.13318558 324.08158588 347.98103714 C324.04226948 346.81379105 324.00295307 345.64654495 323.96244526 344.44392776 C323.91926167 343.26508011 323.87607807 342.08623245 323.83158588 340.87166214 C323.7254335 337.95836894 323.62338284 335.0449902 323.52494526 332.13142776 C322.52229633 332.11684525 321.51964741 332.10226273 320.48661518 332.08723831 C316.71593284 332.02864116 312.94581001 331.95142096 309.17558002 331.86897659 C307.55327755 331.83601277 305.93086823 331.80789504 304.30839252 331.78499222 C289.80220261 331.57475758 277.77291137 330.48206647 266.55228901 320.35017776 C260.6851768 314.27130142 258.53730733 307.18087604 256.52494526 299.13142776 C248.93494526 299.13142776 241.34494526 299.13142776 233.52494526 299.13142776 C233.52494526 312.66142776 233.52494526 326.19142776 233.52494526 340.13142776 C238.00572651 340.15720901 242.48650776 340.18299026 247.10307026 340.20955276 C249.96510424 340.23476017 252.82703658 340.26112267 255.68900776 340.29158401 C260.21798111 340.33968002 264.74671877 340.38381306 269.27592182 340.40242386 C272.93317185 340.41772192 276.5897994 340.45239421 280.24676991 340.49973679 C281.63233963 340.51441672 283.01799829 340.52246096 284.40364552 340.52331161 C297.19693186 340.53904392 307.92777488 342.35012195 317.32572651 351.49080276 C324.29971217 359.86454044 326.67659109 368.46834605 326.69291401 379.13533401 C326.69624241 379.89563416 326.69957081 380.6559343 326.70300007 381.43927383 C326.708045 383.04034701 326.71040915 384.64143063 326.71024799 386.24251175 C326.71244119 388.68938292 326.73064057 391.13580771 326.74955463 393.58259964 C326.75248774 395.1418429 326.75447309 396.70108828 326.75541401 398.26033401 C326.76259953 398.98958588 326.76978504 399.71883774 326.7771883 400.47018814 C326.74712657 407.15634091 326.74712657 407.15634091 324.52494526 410.13142776 C321.63071843 411.09617004 319.81717453 411.25669055 316.80972862 411.25726891 C315.34666805 411.26118053 315.34666805 411.26118053 313.8540507 411.26517117 C312.77994312 411.26294045 311.70583555 411.26070973 310.59917927 411.25841141 C309.46012715 411.2599714 308.32107503 411.26153139 307.14750618 411.26313865 C303.310497 411.26714415 299.47352703 411.26396071 295.63651752 411.2608223 C292.89383073 411.26162618 290.15114563 411.26392029 287.40845966 411.26613235 C280.7198862 411.2705858 274.03132393 411.26961543 267.34275002 411.26671971 C261.90759498 411.26446383 256.47244309 411.26415397 251.03728771 411.26524353 C249.87814108 411.26547338 249.87814108 411.26547338 248.69557733 411.26570787 C247.12584186 411.26602759 245.55610639 411.2663518 243.98637091 411.26668046 C229.25643983 411.26953406 214.52651496 411.26625022 199.7965849 411.2608801 C187.15224292 411.25641305 174.50791012 411.2571874 161.86356831 411.26179886 C147.18887157 411.26714827 132.5141803 411.26925844 117.83948272 411.26618659 C116.27512801 411.26586804 114.71077329 411.26555367 113.14641857 411.26524353 C112.37667962 411.26508925 111.60694067 411.26493498 110.81387629 411.26477603 C105.38452692 411.26391191 99.95518101 411.26537152 94.52583218 411.26772308 C87.91023018 411.27052538 81.29464006 411.26977374 74.67903943 411.26444234 C71.30239247 411.26181102 67.92578173 411.26132736 64.54913235 411.26409149 C60.89196656 411.26680992 57.23485706 411.26341323 53.57769489 411.25841141 C52.50581804 411.26064213 51.43394119 411.26287285 50.32958323 411.26517117 C49.35160176 411.26256342 48.3736203 411.25995568 47.36600304 411.25726891 C46.09941702 411.25702538 46.09941702 411.25702538 44.80724341 411.25677693 C42.58585321 411.13477297 40.65677648 410.74950698 38.52494526 410.13142776 C36.73932998 404.44894869 37.30010338 398.28890307 37.28471088 392.38972855 C37.27509699 390.16651531 37.24409633 387.94426441 37.21244526 385.72127151 C37.11124426 372.2842993 38.63246694 360.59171028 48.15385151 350.38533401 C55.12117032 343.90297939 63.47427026 341.05535439 72.85404682 340.9261055 C74.13507282 340.90616028 75.41609882 340.88621506 76.73594379 340.86566544 C78.12915139 340.84868367 79.52236025 340.83180477 80.91557026 340.81502151 C82.34475509 340.79443982 83.77393399 340.77344303 85.20310688 340.75204849 C88.95787976 340.69695327 92.71270644 340.64748888 96.46757221 340.5992012 C100.97643107 340.5400436 105.48519199 340.47388492 109.99396992 340.40890121 C116.83756836 340.31104965 123.68123071 340.22208576 130.52494526 340.13142776 C130.52494526 326.60142776 130.52494526 313.07142776 130.52494526 299.13142776 C102.80494526 299.13142776 75.08494526 299.13142776 46.52494526 299.13142776 Z M145.52494526 299.13142776 C145.52494526 312.66142776 145.52494526 326.19142776 145.52494526 340.13142776 C169.61494526 340.13142776 193.70494526 340.13142776 218.52494526 340.13142776 C218.52494526 326.60142776 218.52494526 313.07142776 218.52494526 299.13142776 C194.43494526 299.13142776 170.34494526 299.13142776 145.52494526 299.13142776 Z M338.52494526 332.13142776 C338.52494526 337.41142776 338.52494526 342.69142776 338.52494526 348.13142776 C347.10494526 348.13142776 355.68494526 348.13142776 364.52494526 348.13142776 C364.52494526 342.85142776 364.52494526 337.57142776 364.52494526 332.13142776 C355.94494526 332.13142776 347.36494526 332.13142776 338.52494526 332.13142776 Z M56.27103901 362.41267776 C55.83920307 363.14486526 55.40736713 363.87705276 54.96244526 364.63142776 C54.5074062 365.36361526 54.05236713 366.09580276 53.58353901 366.85017776 C49.34177514 375.99110064 51.52494526 388.09630911 51.52494526 397.13142776 C137.65494526 397.13142776 223.78494526 397.13142776 312.52494526 397.13142776 C313.84258006 377.64446022 313.84258006 377.64446022 307.39994526 361.88142776 C301.16230167 355.91498607 294.29024466 354.53536432 285.89214802 354.61676407 C284.50074719 354.60634578 284.50074719 354.60634578 283.08123726 354.59571701 C279.9952476 354.57752552 276.91003353 354.58768952 273.82401752 354.5979805 C271.60248461 354.59091808 269.3809565 354.58217171 267.15943623 354.57187271 C261.14081552 354.54940565 255.12245813 354.55231227 249.1038115 354.56119418 C244.07398003 354.56631074 239.04419774 354.55900608 234.01437134 354.55172211 C221.46841232 354.53376111 208.9225798 354.54012506 196.37663441 354.55789191 C185.49746101 354.57258626 174.61856386 354.5579603 163.73942602 354.52912175 C152.54969142 354.49968235 141.36005646 354.4892761 130.17027801 354.49830395 C123.89564909 354.50322818 117.62123485 354.50104437 111.34663296 354.48051643 C105.4457451 354.46213455 99.54536979 354.46814936 93.64450932 354.49271584 C91.48304022 354.49771557 89.3215319 354.49425583 87.16009426 354.48156738 C70.29517867 354.03241493 70.29517867 354.03241493 56.27103901 362.41267776 Z " fill="#704EEB" transform="translate(43.47505474090576,38.86857223510742)"/>
<path d="M0 0 C0.80746868 -0.0060911 1.61493737 -0.01218221 2.4468748 -0.01845789 C5.13820553 -0.03503607 7.82906046 -0.03031953 10.52043152 -0.0255127 C12.45595794 -0.03285609 14.39147998 -0.04144311 16.32699585 -0.05117798 C21.57505815 -0.07337557 26.82296334 -0.07632548 32.07106614 -0.07443047 C36.45709329 -0.07431067 40.84308727 -0.08287867 45.22910517 -0.09120798 C55.58014276 -0.11043623 65.93109971 -0.11332817 76.28215027 -0.10656738 C86.94827118 -0.09992876 97.61404608 -0.12278524 108.28009683 -0.15988111 C117.44806686 -0.19060579 126.61592575 -0.20193508 135.78394622 -0.1980443 C141.25491268 -0.19597946 146.72560992 -0.20141515 152.19652748 -0.22593689 C157.34392278 -0.24824669 162.49075681 -0.24629078 167.63815498 -0.22600937 C169.52226958 -0.22260669 171.40642226 -0.22765627 173.29048538 -0.24199295 C192.32426382 -0.37678186 192.32426382 -0.37678186 199.70866394 5.39440918 C207.46930523 13.45347651 209.17143564 21.946732 209.10710144 32.79675293 C209.11140671 34.41245934 209.11140671 34.41245934 209.11579895 36.06080627 C209.11783212 38.3291578 209.1123548 40.59752716 209.09977722 42.86584473 C209.08372941 46.3178268 209.09964408 49.76863531 209.11882019 53.22058105 C209.11683732 55.43347424 209.11299274 57.6463667 209.10710144 59.85925293 C209.11317413 60.88139389 209.11924683 61.90353485 209.12550354 62.95664978 C209.03401643 72.38483994 207.2254761 79.71417196 200.67350769 86.66784668 C193.94734354 92.57831299 186.61389411 93.54528175 177.91685486 93.53485107 C177.13897433 93.5378222 176.36109379 93.54079332 175.55964112 93.54385448 C172.95663517 93.55251658 170.35367534 93.55404761 167.75065613 93.55554199 C165.88277082 93.56017192 164.01488645 93.56519682 162.14700317 93.57058716 C157.07454304 93.58369617 152.00209612 93.59015318 146.9296217 93.59459782 C143.75906637 93.59753092 140.58851464 93.60163617 137.41796112 93.60610199 C127.49369186 93.61977288 117.56943083 93.62944158 107.64515281 93.63330388 C96.19703831 93.63778398 84.74904325 93.6553314 73.30096507 93.68430448 C64.44644195 93.70593431 55.59195241 93.71600886 46.73740315 93.717345 C41.45149851 93.71839208 36.16570619 93.72427928 30.87982941 93.74216461 C25.90577394 93.75866778 20.93191499 93.76078986 15.95784187 93.7520256 C14.13619777 93.75125644 12.314543 93.755582 10.49292564 93.76548386 C-11.42963392 93.87762432 -11.42963392 93.87762432 -20.29133606 86.39440918 C-25.0071206 80.3945143 -27.37720428 75.79883202 -27.48420715 68.14196777 C-27.50027008 67.09342621 -27.51633301 66.04488464 -27.53288269 64.96456909 C-27.57760022 60.16661391 -27.61841073 55.36879393 -27.64143372 50.57067871 C-27.65796552 48.04714722 -27.68521835 45.52366201 -27.72346497 43.00036621 C-27.77849791 39.34761442 -27.80015097 35.69595838 -27.81477356 32.04284668 C-27.83744293 30.92582367 -27.8601123 29.80880066 -27.88346863 28.65792847 C-27.86158986 20.46344262 -26.20014834 13.6543372 -20.53556824 7.48092651 C-14.50354721 1.8036032 -8.15574574 -0.05846798 0 0 Z M-11.29133606 20.39440918 C-12.49455837 22.80085381 -12.43724033 24.35200135 -12.46833801 27.04016113 C-12.48117325 28.00488846 -12.49400848 28.96961578 -12.50723267 29.96357727 C-12.5146196 31.00938461 -12.52200653 32.05519196 -12.52961731 33.13269043 C-12.53768906 34.20560837 -12.5457608 35.27852631 -12.55407715 36.38395691 C-12.56792466 38.65785095 -12.57864382 40.93176585 -12.58650208 43.20568848 C-12.60371476 46.6824078 -12.64759594 50.15817638 -12.69172668 53.63464355 C-12.70185341 55.84231884 -12.71036957 58.05000223 -12.71711731 60.25769043 C-12.7346254 61.29742508 -12.75213348 62.33715973 -12.77017212 63.40840149 C-12.75705466 67.77637946 -12.73293285 70.60323327 -10.57722473 74.4654541 C-5.9477703 78.37203527 -1.4586438 78.6862086 4.41349792 78.65510559 C5.18195006 78.65893114 5.9504022 78.66275669 6.74214077 78.66669816 C9.31308297 78.67700417 11.88380084 78.67304062 14.45475769 78.66906738 C16.29957791 78.67341514 18.14439631 78.6785985 19.98921204 78.68455505 C24.99737676 78.6979482 30.00546603 78.69852346 35.01364517 78.69599175 C39.19375307 78.69492245 43.37384568 78.69980428 47.55395031 78.70459718 C57.41380137 78.71569305 67.27361434 78.71612904 77.13346863 78.71008301 C87.30877831 78.70403957 97.48394984 78.71636346 107.65923595 78.73765308 C116.3939588 78.75525733 125.12863763 78.76127237 133.86337757 78.75801533 C139.08095875 78.75620076 144.29844134 78.75885624 149.51600647 78.77272987 C154.42111774 78.78528476 159.3260132 78.7833863 164.23112106 78.77031898 C166.0318649 78.7679487 167.83262382 78.77070402 169.63335037 78.77894211 C172.09042874 78.78937301 174.54677804 78.78133876 177.00382996 78.76863098 C178.07411517 78.77969241 178.07411517 78.77969241 179.1660223 78.7909773 C184.46882855 78.73322906 187.49949529 77.28798231 191.45866394 73.89440918 C193.76376281 71.12829054 193.84289959 68.36893712 193.88566589 64.9263916 C193.89850113 64.02502975 193.91133636 63.12366791 193.92456055 62.19499207 C193.93194748 61.2231044 193.93933441 60.25121674 193.94694519 59.24987793 C193.95905281 57.74606316 193.95905281 57.74606316 193.97140503 56.21186829 C193.98523757 54.0893832 193.99596344 51.96687594 194.00382996 49.84436035 C194.02104256 46.60475357 194.06493669 43.36616743 194.10905457 40.12683105 C194.11918181 38.06368751 194.12769781 36.0005353 194.13444519 33.93737793 C194.16070732 32.48865547 194.16070732 32.48865547 194.1875 31.01066589 C194.16915643 25.29975401 193.62894247 21.86833681 189.70866394 17.39440918 C186.05054104 14.95566058 183.32873085 15.10634248 179.09921265 15.12025452 C178.31684071 15.11501784 177.53446878 15.10978116 176.72838861 15.10438579 C174.09830869 15.08934534 171.46842264 15.08867976 168.83830261 15.0880127 C166.95599029 15.08039388 165.0736811 15.07196687 163.19137573 15.06278992 C158.07147312 15.04080959 152.95163025 15.03204118 147.83168578 15.02696347 C144.63402262 15.02332384 141.4363752 15.01708582 138.23871803 15.00996208 C127.08603348 14.98545458 115.93339553 14.97241303 104.78068542 14.96887207 C94.38042011 14.96523657 83.98044987 14.93534338 73.58027476 14.89346749 C64.65534329 14.85878982 55.7305097 14.84332406 46.8055113 14.84262604 C41.47320613 14.84183231 36.14120133 14.83304992 30.80896568 14.80462837 C25.792975 14.77849132 20.77753461 14.77621819 15.76150703 14.79228401 C13.92085955 14.79410202 12.08018075 14.78737608 10.23960114 14.7714653 C7.72543616 14.75105754 5.21320613 14.76152389 2.69906616 14.77967834 C1.9715275 14.76647838 1.24398883 14.75327841 0.49440354 14.73967844 C-5.15888939 14.83284666 -7.46277375 16.53077505 -11.29133606 20.39440918 Z " fill="#6955E9" transform="translate(71.29133605957031,216.6055908203125)"/>
<path d="M0 0 C1.43665555 1.03531228 2.85462061 2.09719405 4.25 3.1875 C4.86617188 3.66574219 5.48234375 4.14398438 6.1171875 4.63671875 C12.7592319 10.49647792 18.0910881 20.40030723 19.25 29.1875 C19.36678799 31.86428073 19.2954506 34.50591457 19.25 37.1875 C20.28125 37.249375 21.3125 37.31125 22.375 37.375 C27.02609085 38.35022873 28.94824137 39.8107014 32.25 43.1875 C34.93868653 47.66074606 35.63079643 50.97605712 35.65405273 56.16748047 C35.66091599 56.83825623 35.66777924 57.50903198 35.67485046 58.20013428 C35.69304482 60.40187176 35.68929125 62.60289148 35.68359375 64.8046875 C35.68815973 66.34636667 35.69346654 67.88804381 35.69947815 69.42971802 C35.70839524 72.65586633 35.706003 75.88176693 35.69604492 79.10791016 C35.68456786 83.22583809 35.70475365 87.34290685 35.73396206 91.46072197 C35.75238219 94.64366009 35.75201993 97.82639462 35.74632454 101.00937271 C35.74617197 102.52670622 35.75216237 104.04405411 35.76461601 105.56133652 C35.86946621 120.43135448 35.86946621 120.43135448 31.25 127.1875 C25.3517606 131.88201707 20.62658958 132.34436491 13.31567383 132.38037109 C11.94440842 132.39263733 11.94440842 132.39263733 10.54544067 132.40515137 C7.51597751 132.42999018 4.4865612 132.44651878 1.45703125 132.4609375 C0.42167425 132.46626118 -0.61368275 132.47158485 -1.6804142 132.47706985 C-7.16201665 132.5037966 -12.64359637 132.52317186 -18.12524414 132.53759766 C-22.65800176 132.55093121 -27.19030861 132.57877413 -31.72290039 132.61962891 C-37.19883447 132.66898601 -42.67435994 132.69372279 -48.15050697 132.70082474 C-50.23446422 132.70753112 -52.31841258 132.72273716 -54.40224266 132.74671555 C-57.32487583 132.77842345 -60.24594032 132.77839508 -63.16870117 132.77099609 C-64.02354599 132.78740143 -64.87839081 132.80380676 -65.75914001 132.82070923 C-71.87702719 132.75756888 -76.02752056 131.1123553 -80.75 127.1875 C-85.10944763 121.71024529 -85.86939517 117.75022379 -85.91113281 110.89355469 C-85.92074036 109.61832947 -85.9303479 108.34310425 -85.94024658 107.02923584 C-85.94509569 105.63928406 -85.94937424 104.24933018 -85.953125 102.859375 C-85.95888228 101.42694092 -85.96463993 99.99450683 -85.97039795 98.56207275 C-85.98089234 95.55944461 -85.98674485 92.55684311 -85.99023438 89.55419922 C-85.99570831 85.72335819 -86.019719 81.8928745 -86.04820633 78.06214523 C-86.06691507 75.10228477 -86.07204272 72.14250887 -86.07357025 69.1825943 C-86.07658002 67.77131451 -86.08455139 66.36003562 -86.09775543 64.94881439 C-86.23942546 48.64010828 -86.23942546 48.64010828 -81.13671875 42.12890625 C-77.40313454 39.09912412 -74.73477271 37.43065964 -69.75 37.1875 C-69.72873047 36.20523438 -69.72873047 36.20523438 -69.70703125 35.203125 C-69.10453979 23.67436942 -64.90706841 13.45230327 -56.75 5.1875 C-40.2889042 -9.19672857 -18.7472191 -11.69349954 0 0 Z M-48.75 19.1875 C-52.54628686 24.96200086 -54.36825904 30.31616267 -54.75 37.1875 C-51.78 37.1875 -48.81 37.1875 -45.75 37.1875 C-45.5025 35.82625 -45.255 34.465 -45 33.0625 C-43.67670592 27.20876159 -41.53949558 23.53875176 -36.6875 19.875 C-31.12944411 16.68207428 -26.02924399 16.57761447 -19.75 17.1875 C-14.17851792 18.8261712 -9.60440213 22.04092647 -6.75 27.1875 C-5.53000316 30.47362053 -4.57761543 33.78283816 -3.75 37.1875 C-1.11 37.1875 1.53 37.1875 4.25 37.1875 C4.21601525 29.20108375 2.25224224 23.45654385 -2.75 17.1875 C-5.23046674 14.80243583 -7.80079801 12.95004084 -10.75 11.1875 C-11.78125 10.56875 -12.8125 9.95 -13.875 9.3125 C-26.67906837 4.40818941 -40.11018929 9.30536357 -48.75 19.1875 Z M-29.6875 32.4375 C-31.00948907 34.27367835 -31.00948907 34.27367835 -30.75 37.1875 C-26.79 37.1875 -22.83 37.1875 -18.75 37.1875 C-19.41 35.5375 -20.07 33.8875 -20.75 32.1875 C-25.40117418 30.980913 -25.40117418 30.980913 -29.6875 32.4375 Z M-69.75 52.1875 C-71.09531059 54.87812118 -70.88456332 56.96981331 -70.89526367 59.98242188 C-70.90164352 61.1970813 -70.90802338 62.41174072 -70.91459656 63.66320801 C-70.91570938 64.98091187 -70.9168222 66.29861572 -70.91796875 67.65625 C-70.92118076 69.01623571 -70.92454478 70.37622108 -70.92805481 71.73620605 C-70.934046 74.58765464 -70.93589467 77.43907291 -70.93530273 80.29052734 C-70.935201 83.94930621 -70.94886501 87.60789151 -70.96607494 91.26662445 C-70.97717657 94.07526549 -70.97922253 96.88385941 -70.97869301 99.69252014 C-70.98045141 101.69895868 -70.99130197 103.70538252 -71.00224304 105.71179199 C-70.99916641 106.92645142 -70.99608978 108.14111084 -70.99291992 109.39257812 C-70.99434494 110.46576294 -70.99576996 111.53894775 -70.99723816 112.64465332 C-71.0054715 115.35560148 -71.0054715 115.35560148 -68.75 117.1875 C-65.95399647 117.38088632 -63.25742476 117.4497249 -60.46069336 117.43041992 C-59.17519341 117.43326744 -59.17519341 117.43326744 -57.86372375 117.43617249 C-55.02233827 117.43988647 -52.18120664 117.42916805 -49.33984375 117.41796875 C-47.3721164 117.41677729 -45.40438847 117.41632372 -43.43666077 117.4165802 C-39.30986987 117.41501431 -35.18316559 117.40671596 -31.05639648 117.39331055 C-25.75418485 117.37630943 -20.45206842 117.37249646 -15.14983273 117.37325573 C-11.08621809 117.37298443 -7.02262447 117.36750995 -2.9590168 117.36025429 C-1.00329307 117.35706185 0.95243306 117.35509888 2.90815926 117.35436058 C5.63551048 117.35220372 8.36275864 117.34347407 11.09008789 117.33276367 C12.31427933 117.33344345 12.31427933 117.33344345 13.5632019 117.33413696 C17.20611261 117.65701219 17.20611261 117.65701219 20.25 116.1875 C20.34925773 114.22925302 20.37799414 112.26740103 20.37939453 110.30664062 C20.38412277 108.4196344 20.38412277 108.4196344 20.38894653 106.49450684 C20.38715675 105.11092087 20.3851058 103.72733522 20.3828125 102.34375 C20.38348559 100.93509911 20.38445565 99.52644834 20.38571167 98.11779785 C20.38718842 95.16201677 20.38503483 92.20626586 20.38037109 89.25048828 C20.37467381 85.45375416 20.37795293 81.65709072 20.38394356 77.86035919 C20.38754979 74.95053572 20.3864103 72.04072912 20.38381577 69.13090515 C20.38314667 67.730606 20.38397432 66.33030533 20.38629532 64.93000793 C20.38882283 62.97612536 20.38429033 61.02223745 20.37939453 59.06835938 C20.37859894 57.95440796 20.37780334 56.84045654 20.37698364 55.69274902 C20.53369372 53.24772539 20.53369372 53.24772539 19.25 52.1875 C16.48061034 52.09232197 13.73622841 52.06195735 10.96655273 52.07397461 C10.09833893 52.07382858 9.23012512 52.07368256 8.33560181 52.0735321 C5.45157414 52.07423154 2.5676102 52.08202537 -0.31640625 52.08984375 C-2.31037867 52.09170782 -4.30435155 52.09313177 -6.29832458 52.09413147 C-11.55745702 52.09795752 -16.81656203 52.10778855 -22.07568359 52.11883545 C-27.43782175 52.1290477 -32.79996431 52.13362869 -38.16210938 52.13867188 C-48.69141833 52.14941074 -59.22070689 52.1664882 -69.75 52.1875 Z " fill="#3487DD" transform="translate(186.75,74.8125)"/>
<path d="M0 0 C11.02638645 8.94315695 17.08443887 21.4736207 18.859375 35.41015625 C20.11171724 48.68058979 16.3419789 61.4805101 8.859375 72.41015625 C4.56791288 77.5263619 0.38251467 81.82455354 -5.703125 84.66015625 C-7.7429092 85.64926295 -7.7429092 85.64926295 -9.140625 87.41015625 C-9.71083503 90.95076273 -9.76686322 94.35349463 -9.80078125 97.9375 C-10.29738928 103.01203489 -12.58617308 105.91005375 -16.140625 109.41015625 C-15.69589844 109.83425781 -15.25117188 110.25835937 -14.79296875 110.6953125 C-10.17255723 115.48412171 -10.17255723 115.48412171 -10.015625 120.03515625 C-11.19714555 123.57971789 -12.59682486 125.70223997 -15.140625 128.41015625 C-14.16816725 131.10311619 -13.38317879 133.14065204 -11.453125 135.28515625 C-10.140625 137.41015625 -10.140625 137.41015625 -10.140625 140.78515625 C-11.36377244 145.21906573 -13.00419524 147.11288393 -16.140625 150.41015625 C-15.33625 151.09078125 -14.531875 151.77140625 -13.703125 152.47265625 C-10.66996498 155.94969335 -10.22361193 157.84587486 -10.140625 162.41015625 C-11.51370271 166.93657793 -15.40174192 169.24568338 -19.015625 171.97265625 C-19.64082031 172.45412109 -20.26601563 172.93558594 -20.91015625 173.43164062 C-22.11698149 174.35908454 -23.32761308 175.28160215 -24.54248047 176.19848633 C-25.83993945 177.1821846 -27.11834644 178.19097546 -28.390625 179.20703125 C-31.52602975 181.36262201 -33.4257503 181.06924692 -37.140625 180.41015625 C-40.77669581 178.08042214 -43.92837692 175.28606879 -47.140625 172.41015625 C-48.00042969 171.67023438 -48.86023438 170.9303125 -49.74609375 170.16796875 C-55.95768961 164.77602704 -55.95768961 164.77602704 -57.140625 162.41015625 C-57.21037727 160.07756969 -57.21335778 157.74290709 -57.18725586 155.40942383 C-57.17447916 153.91567755 -57.16203883 152.42192837 -57.14988708 150.92817688 C-57.14197081 150.1344549 -57.13405453 149.34073292 -57.12589836 148.52295876 C-57.08382316 143.43950348 -57.09562656 138.3558175 -57.09578609 133.27222157 C-57.09278995 128.80483965 -57.07213097 124.33885396 -57.01391602 119.87182617 C-56.95864801 115.55054109 -56.95230555 111.23159969 -56.97860909 106.91007042 C-56.97984155 105.26623998 -56.96341237 103.62229456 -56.92869377 101.97883034 C-56.47439837 92.81785486 -56.47439837 92.81785486 -60.31497192 84.91464233 C-62.85104964 83.13786481 -65.37226236 81.78415128 -68.140625 80.41015625 C-78.85611025 71.84139824 -84.39506895 58.95492325 -85.953125 45.59765625 C-86.82441121 31.1194748 -82.74329079 17.3772759 -73.140625 6.41015625 C-70.828125 3.84765625 -70.828125 3.84765625 -68.140625 1.41015625 C-67.53992188 0.85457031 -66.93921875 0.29898438 -66.3203125 -0.2734375 C-47.09831117 -16.7646379 -19.42921026 -14.43008864 0 0 Z M-63.60546875 18.08203125 C-69.51485722 27.04385193 -72.21942888 36.79033013 -70.515625 47.41015625 C-67.85739339 58.51218238 -61.90967627 67.20380063 -52.1484375 73.26953125 C-50.2259668 74.31815163 -48.28679768 75.33706991 -46.328125 76.31640625 C-44.140625 77.41015625 -44.140625 77.41015625 -43.140625 78.41015625 C-43.05816243 80.80722427 -43.03940977 83.17589033 -43.06225586 85.57275391 C-43.06837435 87.12724742 -43.07430085 88.6817417 -43.08006287 90.23623657 C-43.08473509 91.06485828 -43.08940731 91.89348 -43.09422112 92.74721146 C-43.11333181 97.12576641 -43.09819023 101.50424517 -43.08789062 105.8828125 C-43.07564927 111.45944209 -43.07387696 117.03530638 -43.11645508 122.61181641 C-43.1499226 127.11330381 -43.1443654 131.61327385 -43.11288643 136.11475754 C-43.10796838 137.82830015 -43.11721478 139.54194589 -43.14109612 141.25532913 C-43.56571729 150.61746895 -43.56571729 150.61746895 -40.29519653 159.0602417 C-38.31864698 160.80652923 -36.46660718 162.17863591 -34.140625 163.41015625 C-32.490625 162.42015625 -30.840625 161.43015625 -29.140625 160.41015625 C-29.51316406 159.91386719 -29.88570313 159.41757812 -30.26953125 158.90625 C-32.74679806 155.34897585 -34.11332048 153.20198735 -34.265625 148.78515625 C-32.8840702 144.64049186 -31.13365356 142.55667345 -28.140625 139.41015625 C-28.57375 138.97445312 -29.006875 138.53875 -29.453125 138.08984375 C-32.07587668 135.28495654 -33.92897634 133.2391135 -34.890625 129.47265625 C-33.78494461 124.95779466 -31.11975934 121.90354592 -28.140625 118.41015625 C-28.58535156 117.98605469 -29.03007812 117.56195313 -29.48828125 117.125 C-32.42281535 114.08351249 -34.03895392 112.32519593 -34.515625 108.03515625 C-33.08700605 104.2687972 -31.97642102 103.17024561 -29.140625 100.47265625 C-23.94471701 95.13806744 -24.24618994 89.93106423 -24.2734375 82.88671875 C-24.140625 79.41015625 -24.140625 79.41015625 -22.140625 76.41015625 C-20.00390625 75.234375 -20.00390625 75.234375 -17.453125 74.09765625 C-7.66058076 69.33523905 -2.19386882 62.89337928 1.93359375 52.77734375 C4.9642455 43.36998131 4.61795927 33.32982802 0.078125 24.4609375 C-6.27996267 13.76223229 -13.84189594 7.34351007 -26.00390625 4.06640625 C-40.06672 1.12424845 -54.59163829 6.91596231 -63.60546875 18.08203125 Z " fill="#5469E4" transform="translate(435.140625,134.58984375)"/>
<path d="M0 0 C4.99848512 2.84264994 8.67463213 6.70916247 10.609375 12.1640625 C11.49484886 18.64334721 11.49455276 24.67122498 7.609375 30.1640625 C4.72414629 33.49317256 2.91099562 35.31469792 -1.390625 36.1640625 C-1.33261719 37.20046875 -1.27460938 38.236875 -1.21484375 39.3046875 C-1.16793462 40.67443406 -1.12243568 42.04422942 -1.078125 43.4140625 C-1.03623047 44.09597656 -0.99433594 44.77789062 -0.95117188 45.48046875 C-0.85931306 49.26505189 -1.07707456 50.8248725 -3.68359375 53.64453125 C-6.390625 55.1640625 -6.390625 55.1640625 -10.015625 55.2265625 C-13.390625 54.1640625 -13.390625 54.1640625 -15.08984375 52.0234375 C-16.65864436 48.57490284 -16.69240494 46.12280066 -16.578125 42.3515625 C-16.55105469 41.19011719 -16.52398437 40.02867187 -16.49609375 38.83203125 C-16.46128906 37.95160156 -16.42648438 37.07117188 -16.390625 36.1640625 C-17.16019531 35.89078125 -17.92976562 35.6175 -18.72265625 35.3359375 C-23.29980559 33.32547659 -25.66627622 29.75073127 -27.703125 25.2890625 C-29.14788407 18.72197583 -28.97696098 13.92999051 -25.734375 8.05859375 C-19.6578512 -0.50859823 -10.07215676 -3.52196331 0 0 Z M-11.390625 14.1640625 C-13.655009 16.85561451 -13.655009 16.85561451 -13.140625 19.2265625 C-12.46529782 21.35883225 -12.46529782 21.35883225 -10.390625 23.1640625 C-7.08379034 22.87422981 -7.08379034 22.87422981 -4.390625 21.1640625 C-4.1405477 18.70596252 -4.1405477 18.70596252 -4.390625 16.1640625 C-6.21978141 13.92561235 -6.21978141 13.92561235 -8.890625 13.8515625 C-9.715625 13.9546875 -10.540625 14.0578125 -11.390625 14.1640625 Z " fill="#3A81DE" transform="translate(170.390625,129.8359375)"/>
<path d="M0 0 C1.9375 1.625 1.9375 1.625 3 4 C3.1875 7.75 3.1875 7.75 3 11 C3.66 10.67 4.32 10.34 5 10 C7.05859375 9.796875 7.05859375 9.796875 9.4375 9.75 C10.21996094 9.72421875 11.00242188 9.6984375 11.80859375 9.671875 C14 10 14 10 15.76171875 11.265625 C17.91981028 14.28831471 17.5349445 17.44113312 17 21 C15.875 22.9375 15.875 22.9375 14 24 C10.8125 24.6875 10.8125 24.6875 8 25 C8.680625 25.845625 9.36125 26.69125 10.0625 27.5625 C12 31 12 31 11.9375 34.6875 C10.56179775 39.54831461 10.56179775 39.54831461 8 41 C4.61712204 41.51062309 2.18666381 41.74619908 -0.7890625 39.875 C-2.25388911 38.6531541 -3.63463315 37.33206522 -5 36 C-5.680625 36.825 -6.36125 37.65 -7.0625 38.5 C-10 41 -10 41 -13.5625 41.625 C-17 41 -17 41 -19.5 38.9375 C-21.44772841 35.12319853 -21.06123799 33.09334653 -20 29 C-19.34 28.01 -18.68 27.02 -18 26 C-18.94875 25.54625 -19.8975 25.0925 -20.875 24.625 C-24 23 -24 23 -26 21 C-26.57109294 13.80422898 -26.57109294 13.80422898 -24.765625 11.26171875 C-22.50867258 9.64889656 -21.18662082 9.65941941 -18.4375 9.75 C-17.25994141 9.77320313 -17.25994141 9.77320313 -16.05859375 9.796875 C-14 10 -14 10 -12 11 C-12.1546875 9.14375 -12.1546875 9.14375 -12.3125 7.25 C-12.30045388 3.85901653 -12.17043192 3.21174875 -9.9375 0.4375 C-6.08838451 -1.44610971 -4.07579849 -1.207644 0 0 Z " fill="#6954E9" transform="translate(100,243)"/>
<path d="M0 0 C2.62419798 1.70218248 3.76637133 2.97124855 4.46484375 6.046875 C4.72058899 8.0227697 4.86746906 10.01203595 5 12 C5.66 11.67 6.32 11.34 7 11 C14.06552707 10.43019943 14.06552707 10.43019943 17.5625 12.5625 C19 15 19 15 18.9375 18.5625 C17.64566929 23.2992126 17.64566929 23.2992126 15 25 C12.3125 25.6875 12.3125 25.6875 10 26 C10.495 26.66 10.99 27.32 11.5 28 C13.5370021 32.07400419 13.43865483 34.46723344 13 39 C12 41 12 41 10 42 C3.03225806 42.77419355 3.03225806 42.77419355 -0.5 40.125 C-2 38 -2 38 -2 36 C-2.66 36 -3.32 36 -4 36 C-4.433125 36.928125 -4.433125 36.928125 -4.875 37.875 C-6 40 -6 40 -8 42 C-11.85506762 42.42834085 -14.12800365 42.55897202 -17.4375 40.4375 C-19.59761052 37.06772759 -19.4835611 34.93756894 -19 31 C-17.5 28.0625 -17.5 28.0625 -16 26 C-16.763125 25.896875 -17.52625 25.79375 -18.3125 25.6875 C-21.28334611 24.92751611 -22.27413043 24.50251088 -24 22 C-24.88112708 18.81438673 -25.29224053 16.83176152 -24.1875 13.6875 C-23 12 -23 12 -21 11 C-13.69565217 10.76811594 -13.69565217 10.76811594 -10 12 C-10.12375 10.14375 -10.12375 10.14375 -10.25 8.25 C-10.23900334 5.1489408 -10.12081946 4.18587609 -8.375 1.5 C-5.27859404 -0.45562482 -3.60146865 -0.60024477 0 0 Z " fill="#6A54EA" transform="translate(231,242)"/>
<path d="M0 0 C4.99268902 1.47931526 4.99268902 1.47931526 6.375 4 C6.61139776 6.71857423 6.50976016 9.25987669 6.375 12 C7.035 11.67 7.695 11.34 8.375 11 C10.43359375 10.796875 10.43359375 10.796875 12.8125 10.75 C13.59496094 10.72421875 14.37742188 10.6984375 15.18359375 10.671875 C17.89809 11.07832364 18.71194747 11.86105859 20.375 14 C21.53396724 17.14576822 21.57872162 18.49668775 20.3125 21.625 C17.98828179 24.47404167 15.73319395 25.58209589 12.375 27 C12.87 27.70125 13.365 28.4025 13.875 29.125 C15.6218968 32.47321887 15.92966566 34.2758163 15.375 38 C13.8125 40.375 13.8125 40.375 11.375 42 C7.94261563 42.57206406 5.6059826 42.77845508 2.58984375 40.87109375 C1.12183156 39.65295598 -0.2595778 38.33211922 -1.625 37 C-2.12 37.825 -2.615 38.65 -3.125 39.5 C-5.79065343 42.16565343 -6.15915258 42.39603396 -9.6875 42.5 C-13.625 42 -13.625 42 -15.5625 40.8125 C-17.02862748 38.311459 -17.55949766 36.94760535 -17.625 34 C-16.51202785 31.20196722 -15.13093638 28.60468824 -13.625 26 C-14.553125 25.9175 -15.48125 25.835 -16.4375 25.75 C-19.625 25 -19.625 25 -21.5 23.3125 C-22.96920486 20.29246779 -23.04046043 18.32368343 -22.625 15 C-21.6875 12.625 -21.6875 12.625 -19.625 11 C-15.85258462 10.50944782 -12.07464383 10.27517809 -8.625 12 C-8.728125 10.948125 -8.83125 9.89625 -8.9375 8.8125 C-8.625 5 -8.625 5 -6.5625 2 C-3.625 0 -3.625 0 0 0 Z " fill="#6954E9" transform="translate(162.625,242)"/>
<path d="M0 0 C4.10997383 2.97023319 7.25331448 6.52556843 8.859375 11.34375 C9.55409861 18.39348631 9.33993249 24.5997795 4.859375 30.34375 C-0.82933315 35.52823174 -5.82014845 36.64868648 -13.41796875 36.55859375 C-19.53743697 36.07570888 -23.25349839 32.86122146 -27.140625 28.34375 C-30.59787158 23.21748782 -30.96593605 18.34348317 -30.140625 12.34375 C-28.0303523 5.48834434 -24.00164787 1.53514136 -17.828125 -1.96875 C-11.40500016 -3.61187496 -5.82493502 -3.26196361 0 0 Z M-13.890625 13.53125 C-15.4249229 15.34023167 -15.4249229 15.34023167 -14.890625 17.96875 C-14.36316855 20.2749907 -14.36316855 20.2749907 -13.140625 21.34375 C-10.68252502 21.5938273 -10.68252502 21.5938273 -8.140625 21.34375 C-5.90217485 19.51459359 -5.90217485 19.51459359 -5.828125 16.84375 C-5.93125 16.01875 -6.034375 15.19375 -6.140625 14.34375 C-9.2405623 12.27712513 -10.67002982 11.34584613 -13.890625 13.53125 Z " fill="#3F7DDF" transform="translate(412.140625,145.65625)"/>
<path d="M0 0 C0.75792847 -0.0038269 1.51585693 -0.00765381 2.29675293 -0.01159668 C3.89364964 -0.01430955 5.49059126 -0.00699203 7.08740234 0.00976562 C9.52412494 0.03118736 11.95789976 0.00994611 14.39453125 -0.015625 C15.9505273 -0.01298161 17.50652153 -0.00785639 19.0625 0 C19.78659058 -0.00809692 20.51068115 -0.01619385 21.25671387 -0.02453613 C26.10697838 0.06484466 28.64467488 1.05344172 32.03125 4.53125 C32.89042455 7.47618382 32.4298121 9.39257349 32.03125 12.53125 C31.02905273 14.25024414 31.02905273 14.25024414 29.03125 15.53125 C26.13689454 15.84183538 23.46214018 15.97542783 20.56640625 15.96484375 C19.32182899 15.97270653 19.32182899 15.97270653 18.05210876 15.98072815 C16.29785277 15.98714946 14.54355372 15.9858099 12.78930664 15.97729492 C10.106803 15.96879138 7.42643345 15.99753191 4.74414062 16.02929688 C3.03906314 16.03090917 1.33398188 16.03033081 -0.37109375 16.02734375 C-1.57281471 16.04419472 -1.57281471 16.04419472 -2.79881287 16.06138611 C-6.37392997 16.01671663 -8.5366378 15.84421408 -11.47094727 13.71899414 C-13.68898193 10.47925353 -13.58376094 8.35798475 -12.96875 4.53125 C-9.06053485 0.33825599 -5.47369138 -0.0612079 0 0 Z " fill="#8539F0" transform="translate(391.96875,321.46875)"/>
</svg>
